<svg width="1079" height="634" viewBox="0 0 1079 634" fill="none" xmlns="http://www.w3.org/2000/svg">
<g opacity="0.7">
<g opacity="0.2">
<path fill-rule="evenodd" clip-rule="evenodd" d="M372.122 211.676L286.3 111.578C273.877 135.163 261.833 176.788 279.149 206.837C270.744 207.585 262.712 209.007 256.5 211.5C216.865 227.406 173.375 268.5 152 354C145.811 378.757 134.671 390.613 121.431 404.704C108.942 417.996 94.5841 433.276 80.75 463.25C52.2501 525 129.165 586.75 185.25 530.665C216.782 499.133 244.344 486.116 267.484 475.188C300.789 459.458 324.935 448.054 338.574 392C345.063 418.147 342.467 479.853 280.172 517.504C217.877 555.156 204.899 634.468 206.197 658H560.5C560.5 434.59 530.922 241.566 372.122 211.676Z" fill="#7B61FF"/>
</g>
<g filter="url(#filter0_d_11_2277)">
<rect x="421.419" y="190.284" width="617.292" height="647.938" rx="8" transform="rotate(-16.6895 421.419 190.284)" fill="#F4F7FA"/>
<rect width="601.292" height="631.938" transform="translate(431.379 195.649) rotate(-16.6895)" fill="#F4F7FA"/>
<g clip-path="url(#clip0_11_2277)">
<rect width="75.1615" height="78.9922" transform="translate(431.379 195.649) rotate(-16.6895)" fill="#E8EDF9"/>
<path d="M447.998 204.523C448.177 205.121 448.189 205.667 448.032 206.161C447.875 206.651 447.583 207.074 447.157 207.43C446.734 207.78 446.214 208.048 445.599 208.232C444.983 208.417 444.4 208.48 443.85 208.421C443.298 208.358 442.819 208.166 442.414 207.845C442.007 207.52 441.714 207.059 441.535 206.46C441.414 206.059 441.387 205.672 441.451 205.301C441.515 204.925 441.656 204.578 441.874 204.261C442.096 203.937 442.385 203.655 442.741 203.415C443.096 203.171 443.505 202.979 443.968 202.841C444.588 202.655 445.175 202.598 445.729 202.669C446.284 202.741 446.76 202.934 447.159 203.247C447.557 203.561 447.837 203.986 447.998 204.523ZM446.062 204.968C445.974 204.675 445.842 204.441 445.666 204.266C445.492 204.085 445.288 203.967 445.053 203.914C444.819 203.861 444.568 203.874 444.302 203.954C444.035 204.034 443.819 204.16 443.652 204.334C443.485 204.508 443.377 204.719 443.328 204.967C443.282 205.209 443.302 205.476 443.39 205.769C443.476 206.057 443.606 206.289 443.777 206.466C443.954 206.642 444.159 206.756 444.394 206.809C444.632 206.857 444.886 206.84 445.157 206.759C445.428 206.678 445.645 206.553 445.809 206.385C445.975 206.212 446.08 206.004 446.122 205.763C446.168 205.521 446.148 205.256 446.062 204.968ZM446.477 200.19C446.623 200.675 446.623 201.143 446.478 201.596C446.332 202.044 446.061 202.442 445.665 202.789C445.274 203.134 444.786 203.395 444.201 203.57C443.612 203.747 443.056 203.799 442.535 203.727C442.014 203.655 441.569 203.472 441.2 203.178C440.83 202.88 440.572 202.489 440.427 202.004C440.254 201.428 440.238 200.905 440.378 200.434C440.52 199.959 440.788 199.55 441.181 199.209C441.577 198.866 442.066 198.608 442.647 198.434C443.236 198.257 443.788 198.203 444.304 198.272C444.824 198.34 445.272 198.534 445.649 198.854C446.028 199.168 446.305 199.614 446.477 200.19ZM444.617 200.841C444.54 200.583 444.427 200.374 444.279 200.214C444.13 200.049 443.955 199.94 443.753 199.886C443.556 199.831 443.335 199.84 443.09 199.914C442.855 199.984 442.667 200.095 442.527 200.247C442.391 200.397 442.306 200.582 442.272 200.801C442.241 201.015 442.265 201.255 442.345 201.522C442.422 201.779 442.534 201.993 442.68 202.163C442.829 202.328 443.006 202.439 443.209 202.497C443.411 202.556 443.633 202.549 443.873 202.477C444.113 202.405 444.3 202.289 444.433 202.13C444.571 201.97 444.654 201.781 444.684 201.563C444.717 201.339 444.694 201.098 444.617 200.841Z" fill="#B7C0D8"/>
<path d="M463.894 200.504C464.441 200.34 464.999 200.34 465.521 200.476C465.882 200.075 466.348 199.768 466.894 199.605L475.144 197.131C475.69 196.967 476.248 196.967 476.77 197.103C477.131 196.703 477.597 196.396 478.144 196.232L485.643 193.983C487.3 193.487 489.066 194.496 489.588 196.237L491.715 203.33C492.012 204.323 491.848 205.39 491.271 206.212L487.736 211.248L492.764 223.253C494.095 226.431 496.048 227.66 499.055 229.993C499.608 230.422 500.017 231.022 500.222 231.704L502.112 238.01C502.634 239.751 501.714 241.565 500.058 242.062L470.81 250.831C469.153 251.328 467.387 250.319 466.865 248.578L464.974 242.272C464.77 241.59 464.781 240.863 465.007 240.201C466.235 236.599 467.189 234.498 466.552 231.111L464.146 218.321L458.423 216.06C457.489 215.692 456.765 214.89 456.467 213.898L454.34 206.804C453.818 205.063 454.738 203.249 456.395 202.752L463.894 200.504Z" fill="#F4F7FA"/>
<path d="M457.34 205.905L464.84 203.657L466.258 208.386L469.257 207.486L467.84 202.757L476.089 200.284L477.507 205.013L480.507 204.114L479.089 199.385L486.588 197.136L488.715 204.23L484.133 210.757L489.887 224.495L469.638 230.566L466.884 215.929L459.467 212.999L457.34 205.905Z" fill="#34364C"/>
<path d="M470.583 233.718L490.832 227.648L497.222 232.604L499.113 238.909L469.864 247.678L467.974 241.373L470.583 233.718Z" fill="#34364C"/>
</g>
<rect width="75.1615" height="78.9922" transform="translate(476.75 346.978) rotate(-16.6895)" fill="#E8EDF9"/>
<path d="M489.706 349.3L489.981 349.217L490.432 350.723L490.321 350.757C489.823 350.906 489.402 351.113 489.058 351.378C488.714 351.643 488.448 351.953 488.26 352.31C488.075 352.66 487.968 353.049 487.939 353.476C487.915 353.902 487.974 354.353 488.116 354.829L488.591 356.414C488.693 356.754 488.816 357.046 488.96 357.288C489.108 357.525 489.271 357.711 489.45 357.848C489.632 357.979 489.823 358.062 490.024 358.097C490.223 358.127 490.432 358.11 490.65 358.044C490.855 357.983 491.028 357.884 491.168 357.747C491.312 357.608 491.419 357.443 491.49 357.25C491.564 357.052 491.599 356.837 491.596 356.605C491.596 356.367 491.557 356.119 491.48 355.862C491.403 355.604 491.299 355.376 491.168 355.177C491.042 354.977 490.894 354.817 490.724 354.697C490.554 354.572 490.368 354.492 490.167 354.457C489.966 354.422 489.757 354.437 489.538 354.503C489.242 354.592 489.001 354.74 488.816 354.948C488.633 355.15 488.511 355.377 488.449 355.629C488.386 355.88 488.386 356.126 488.448 356.364L487.768 356.168C487.681 355.828 487.655 355.488 487.691 355.149C487.732 354.809 487.831 354.489 487.989 354.189C488.149 353.884 488.372 353.618 488.655 353.39C488.938 353.158 489.282 352.981 489.688 352.859C490.133 352.726 490.55 352.694 490.937 352.763C491.328 352.831 491.682 352.98 491.998 353.209C492.314 353.437 492.587 353.729 492.817 354.083C493.047 354.438 493.228 354.836 493.36 355.277C493.499 355.739 493.551 356.192 493.518 356.635C493.488 357.077 493.376 357.489 493.182 357.871C492.991 358.251 492.725 358.583 492.381 358.867C492.038 359.151 491.622 359.366 491.133 359.513C490.627 359.664 490.139 359.711 489.669 359.652C489.203 359.587 488.77 359.431 488.373 359.184C487.975 358.937 487.626 358.606 487.326 358.192C487.03 357.776 486.8 357.293 486.635 356.743L486.415 356.01C486.185 355.242 486.085 354.506 486.117 353.801C486.151 353.092 486.31 352.44 486.594 351.846C486.876 351.247 487.277 350.73 487.798 350.293C488.319 349.856 488.955 349.525 489.706 349.3Z" fill="#B7C0D8"/>
<rect width="75.1615" height="78.9922" transform="translate(522.121 498.308) rotate(-16.6895)" fill="#E8EDF9"/>
<path d="M538.71 506.155L539.154 507.635L532.285 509.695L531.85 508.576L533.934 501.079L535.433 500.629L534.624 503.834L533.622 507.681L538.71 506.155ZM535.839 500.508L538.698 510.041L536.812 510.607L533.954 501.073L535.839 500.508Z" fill="#B7C0D8"/>
<g clip-path="url(#clip1_11_2277)">
<rect width="75.1615" height="78.9922" transform="translate(567.492 649.637) rotate(-16.6895)" fill="#E8EDF9"/>
</g>
<g clip-path="url(#clip2_11_2277)">
<rect width="75.1615" height="78.9922" transform="translate(454.065 271.314) rotate(-16.6895)" fill="#B7C0D8"/>
<path d="M468.66 273.251L468.965 274.265L467.832 283.89L465.842 284.486L467.112 275.321L462.364 276.744L461.923 275.271L468.66 273.251Z" fill="#E8EDF9"/>
<path d="M492.948 305.293C492.744 305.914 492.477 306.577 492.144 307.276C490.969 309.744 489.294 311.987 488.153 313.239L487.962 313.45C487.195 314.292 486.932 315.509 487.271 316.64L489.55 324.242C490.072 325.984 491.838 326.992 493.495 326.496L522.743 317.727C524.4 317.23 525.32 315.416 524.798 313.675L522.519 306.073C522.179 304.941 521.289 304.07 520.186 303.788L519.91 303.718C518.269 303.3 515.636 302.349 513.297 300.934C512.634 300.533 512.047 300.127 511.535 299.72C512.752 298.992 513.357 297.453 512.911 295.967L511.372 290.835C511.065 289.811 510.304 288.992 509.33 288.64L507.773 288.077C508.058 286.356 507.963 284.527 507.422 282.723C505.608 276.671 499.468 273.164 493.709 274.89C487.949 276.617 484.752 282.923 486.567 288.976C487.138 290.882 488.139 292.535 489.421 293.852L488.693 294.828C488.074 295.657 487.888 296.76 488.195 297.784L489.734 302.916C490.179 304.402 491.531 305.355 492.948 305.293Z" fill="#F4F7FA"/>
<path d="M504.423 283.623C505.101 285.887 504.796 288.201 503.758 290.066L508.373 291.735L509.911 296.867L506.216 297.975C507.107 300.3 509.273 302.245 511.775 303.759C514.43 305.364 517.362 306.422 519.243 306.902L519.519 306.972L521.798 314.574L492.55 323.343L490.271 315.741L490.463 315.53C491.769 314.096 493.636 311.599 494.969 308.797C496.226 306.157 496.964 303.341 496.429 300.909L492.734 302.017L491.195 296.885L493.929 293.222C491.916 292.266 490.276 290.445 489.566 288.077C488.274 283.765 490.551 279.273 494.654 278.043C498.756 276.813 503.13 279.311 504.423 283.623Z" fill="#34364C"/>
</g>
<rect width="75.1615" height="78.9922" transform="translate(499.435 422.643) rotate(-16.6895)" fill="#B7C0D8"/>
<path d="M510.887 431.182L509.273 431.273L508.367 426.278L513.724 424.672L514.181 426.198L510.377 427.338L510.775 429.524C510.879 429.412 511.048 429.276 511.281 429.116C511.512 428.951 511.787 428.821 512.106 428.725C512.568 428.587 513 428.536 513.401 428.572C513.803 428.609 514.169 428.728 514.5 428.928C514.836 429.127 515.129 429.406 515.379 429.764C515.629 430.122 515.829 430.552 515.979 431.054C516.106 431.477 516.162 431.901 516.146 432.324C516.129 432.743 516.033 433.143 515.857 433.524C515.679 433.901 515.415 434.235 515.065 434.525C514.714 434.816 514.264 435.044 513.714 435.209C513.304 435.332 512.888 435.39 512.467 435.383C512.051 435.374 511.654 435.296 511.276 435.147C510.903 434.997 510.574 434.78 510.288 434.494C510.006 434.203 509.794 433.838 509.653 433.4L511.526 432.839C511.633 433.101 511.773 433.314 511.946 433.476C512.121 433.633 512.321 433.735 512.544 433.782C512.768 433.829 513.008 433.814 513.266 433.737C513.506 433.665 513.697 433.558 513.84 433.415C513.983 433.272 514.082 433.105 514.139 432.912C514.194 432.714 514.212 432.499 514.195 432.267C514.181 432.028 514.135 431.781 514.058 431.523C513.98 431.265 513.88 431.041 513.756 430.85C513.632 430.659 513.484 430.506 513.311 430.391C513.139 430.276 512.942 430.206 512.721 430.182C512.504 430.157 512.267 430.183 512.009 430.26C511.66 430.365 511.406 430.501 511.246 430.667C511.091 430.833 510.971 431.004 510.887 431.182Z" fill="#E8EDF9"/>
<rect width="75.1615" height="78.9922" transform="translate(544.806 573.972) rotate(-16.6895)" fill="#B7C0D8"/>
<path d="M556.042 581.22L557.05 580.918C557.373 580.821 557.623 580.686 557.8 580.515C557.975 580.338 558.083 580.135 558.123 579.904C558.167 579.667 558.148 579.413 558.067 579.143C557.993 578.898 557.88 578.697 557.728 578.538C557.579 578.373 557.393 578.267 557.169 578.22C556.944 578.169 556.686 578.187 556.393 578.274C556.162 578.344 555.962 578.454 555.793 578.604C555.624 578.755 555.505 578.931 555.437 579.132C555.369 579.333 555.37 579.552 555.441 579.787L553.548 580.355C553.391 579.831 553.394 579.333 553.557 578.861C553.725 578.387 554.013 577.97 554.424 577.609C554.834 577.248 555.325 576.982 555.897 576.81C556.543 576.616 557.14 576.552 557.687 576.616C558.233 576.676 558.702 576.866 559.093 577.187C559.484 577.507 559.769 577.964 559.946 578.558C560.037 578.859 560.055 579.172 560 579.498C559.944 579.819 559.819 580.133 559.625 580.438C559.435 580.738 559.174 581.011 558.843 581.258C558.512 581.5 558.114 581.691 557.652 581.829L556.342 582.222L556.042 581.22ZM556.472 582.654L556.179 581.678L557.489 581.286C558.008 581.13 558.482 581.052 558.91 581.052C559.338 581.052 559.719 581.124 560.052 581.267C560.384 581.405 560.663 581.605 560.888 581.865C561.112 582.121 561.279 582.431 561.388 582.793C561.521 583.238 561.555 583.661 561.489 584.061C561.423 584.457 561.27 584.822 561.032 585.155C560.799 585.486 560.496 585.777 560.123 586.027C559.75 586.272 559.321 586.467 558.836 586.613C558.434 586.733 558.023 586.797 557.602 586.804C557.184 586.806 556.784 586.742 556.403 586.614C556.025 586.48 555.691 586.271 555.401 585.987C555.114 585.697 554.9 585.316 554.759 584.845L556.651 584.277C556.725 584.522 556.851 584.722 557.031 584.877C557.211 585.032 557.424 585.133 557.671 585.178C557.922 585.221 558.18 585.203 558.447 585.124C558.748 585.033 558.989 584.901 559.17 584.728C559.354 584.549 559.473 584.342 559.527 584.107C559.583 583.867 559.57 583.611 559.489 583.341C559.385 582.992 559.238 582.731 559.048 582.56C558.857 582.384 558.629 582.281 558.363 582.251C558.097 582.221 557.803 582.255 557.48 582.352L556.472 582.654Z" fill="#E8EDF9"/>
<g clip-path="url(#clip3_11_2277)">
<rect width="75.1615" height="78.9922" transform="translate(598.055 228.143) rotate(-16.6895)" fill="#B7C0D8"/>
<path d="M636.938 262.123C636.734 262.743 636.468 263.406 636.135 264.106C634.96 266.574 633.284 268.817 632.144 270.069L631.952 270.279C631.186 271.121 630.922 272.338 631.261 273.47L633.541 281.072C634.063 282.813 635.829 283.822 637.486 283.325L666.734 274.556C668.391 274.059 669.31 272.245 668.788 270.504L666.509 262.902C666.17 261.771 665.28 260.899 664.177 260.618L663.901 260.548C662.26 260.129 659.627 259.178 657.288 257.764C656.625 257.363 656.038 256.956 655.526 256.55C656.742 255.822 657.347 254.283 656.902 252.797L655.363 247.665C655.056 246.64 654.294 245.822 653.321 245.47L651.763 244.907C652.048 243.185 651.954 241.357 651.413 239.553C649.598 233.5 643.458 229.993 637.699 231.72C631.94 233.446 628.742 239.753 630.557 245.806C631.128 247.711 632.13 249.365 633.412 250.682L632.684 251.657C632.064 252.487 631.879 253.589 632.186 254.614L633.725 259.746C634.17 261.232 635.522 262.184 636.938 262.123Z" fill="#F4F7FA"/>
<path d="M648.413 240.452C649.092 242.716 648.786 245.03 647.749 246.895L652.363 248.564L653.902 253.696L650.206 254.804C651.098 257.13 653.264 259.075 655.766 260.588C658.421 262.194 661.353 263.252 663.233 263.731L663.509 263.801L665.789 271.403L636.54 280.172L634.261 272.57L634.453 272.36C635.76 270.925 637.626 268.428 638.96 265.627C640.217 262.987 640.955 260.17 640.42 257.738L636.724 258.846L635.186 253.714L637.92 250.052C635.906 249.095 634.267 247.274 633.557 244.906C632.264 240.595 634.542 236.102 638.644 234.872C642.747 233.642 647.12 236.141 648.413 240.452Z" fill="#34364C"/>
</g>
<rect width="75.1615" height="78.9922" transform="translate(643.426 379.473) rotate(-16.6895)" fill="#B7C0D8"/>
<rect width="75.1615" height="78.9922" transform="translate(688.797 530.802) rotate(-16.6895)" fill="#B7C0D8"/>
<g clip-path="url(#clip4_11_2277)">
<rect width="75.1615" height="78.9922" transform="translate(742.046 184.973) rotate(-16.6895)" fill="#B7C0D8"/>
<path d="M780.929 218.952C780.725 219.573 780.458 220.236 780.125 220.935C778.951 223.403 777.275 225.646 776.135 226.898L775.943 227.109C775.177 227.95 774.913 229.168 775.252 230.299L777.531 237.901C778.053 239.642 779.82 240.651 781.476 240.154L810.724 231.385C812.381 230.889 813.301 229.075 812.779 227.333L810.5 219.731C810.161 218.6 809.271 217.728 808.168 217.447L807.892 217.377C806.251 216.959 803.617 216.008 801.278 214.593C800.616 214.192 800.028 213.785 799.516 213.379C800.733 212.651 801.338 211.112 800.892 209.626L799.354 204.494C799.046 203.47 798.285 202.651 797.312 202.299L795.754 201.736C796.039 200.014 795.944 198.186 795.403 196.382C793.589 190.329 787.449 186.822 781.69 188.549C775.931 190.276 772.733 196.582 774.548 202.635C775.119 204.541 776.121 206.194 777.402 207.511L776.674 208.487C776.055 209.316 775.869 210.419 776.177 211.443L777.715 216.575C778.161 218.061 779.512 219.014 780.929 218.952Z" fill="#F4F7FA"/>
<path d="M792.404 197.281C793.083 199.546 792.777 201.86 791.739 203.725L796.354 205.394L797.892 210.526L794.197 211.634C795.088 213.959 797.254 215.904 799.756 217.417C802.411 219.023 805.344 220.081 807.224 220.56L807.5 220.631L809.779 228.233L780.531 237.002L778.252 229.4L778.444 229.189C779.75 227.755 781.617 225.258 782.95 222.456C784.207 219.816 784.946 217 784.411 214.568L780.715 215.676L779.176 210.544L781.91 206.881C779.897 205.925 778.258 204.104 777.548 201.736C776.255 197.424 778.533 192.932 782.635 191.702C786.738 190.472 791.111 192.97 792.404 197.281Z" fill="#34364C"/>
</g>
<rect width="75.1615" height="78.9922" transform="translate(787.417 336.302) rotate(-16.6895)" fill="#B7C0D8"/>
<rect width="75.1615" height="78.9922" transform="translate(832.787 487.631) rotate(-16.6895)" fill="#B7C0D8"/>
<g clip-path="url(#clip5_11_2277)">
<rect width="75.1615" height="78.9922" transform="translate(878.158 638.961) rotate(-16.6895)" fill="#B7C0D8"/>
<g clip-path="url(#clip6_11_2277)">
<path fill-rule="evenodd" clip-rule="evenodd" d="M913.409 642.029C912.949 640.312 913.871 638.561 915.492 638.076L919.991 636.727C921.612 636.241 923.345 637.195 923.905 638.882L924.198 639.761L925.673 639.318C927.329 638.822 929.096 639.83 929.618 641.572L930.191 643.484C933.228 641.726 936.913 641.187 940.695 642.913C948.552 646.497 951.405 658.094 945.893 666.558C944.563 668.6 943.538 670.27 942.96 671.847C942.828 672.207 942.725 672.548 942.649 672.874L945.819 672.395C947.37 672.16 948.881 673.162 949.354 674.74L951.126 680.651C951.648 682.392 950.728 684.207 949.071 684.703L917.604 694.138C915.947 694.634 914.181 693.626 913.659 691.884L911.887 685.973C911.414 684.395 912.124 682.728 913.548 682.07L916.459 680.726C916.217 680.496 915.943 680.268 915.635 680.04C914.284 679.041 912.509 678.21 910.275 677.236C901.015 673.202 897.017 661.948 901.607 654.632C903.816 651.11 907.189 649.533 910.692 649.33L910.119 647.418C909.597 645.677 910.517 643.862 912.174 643.366L913.649 642.923L913.409 642.029Z" fill="#34364C"/>
<path fill-rule="evenodd" clip-rule="evenodd" d="M916.437 641.228L920.937 639.879L922.235 643.785L926.618 642.471L928.036 647.2L923.794 648.472L925.605 653.764C925.657 653.638 925.712 653.513 925.77 653.389C928.495 647.584 933.839 643.327 939.501 645.91C945.182 648.502 947.9 657.566 943.276 664.666C940.657 668.688 938.371 672.493 939.781 676.633L946.354 675.639L948.126 681.551L916.659 690.985L914.887 685.074L920.922 682.288C919.821 678.054 915.82 676.134 911.42 674.217C903.652 670.832 900.935 661.768 904.253 656.478C907.56 651.206 914.365 651.82 919.834 655.168C919.95 655.24 920.065 655.314 920.178 655.391L918.779 649.976L914.537 651.247L913.119 646.518L917.501 645.204L916.437 641.228ZM917.627 660.606C921.796 664.515 923.819 669.94 924.541 672.346C923.163 672.762 917.247 671.918 913.313 668.799C910.482 666.553 908.702 662.495 909.91 660.351C911.117 658.206 915.021 658.163 917.627 660.606ZM930.604 656.715C929.274 662.273 930.569 667.916 931.29 670.323C932.669 669.912 937.145 665.952 938.713 661.183C939.843 657.75 939.096 653.383 936.908 652.256C934.72 651.13 931.436 653.241 930.604 656.715Z" fill="#F4F7FA"/>
</g>
</g>
<g clip-path="url(#clip7_11_2277)">
<rect width="75.1615" height="78.9922" transform="translate(886.036 141.802) rotate(-16.6895)" fill="#B7C0D8"/>
<path d="M924.919 175.782C924.716 176.402 924.449 177.065 924.116 177.764C922.941 180.232 921.265 182.476 920.125 183.728L919.933 183.938C919.167 184.78 918.903 185.997 919.243 187.129L921.522 194.731C922.044 196.472 923.81 197.481 925.467 196.984L954.715 188.215C956.372 187.718 957.292 185.904 956.77 184.163L954.49 176.561C954.151 175.43 953.261 174.558 952.158 174.277L951.882 174.206C950.241 173.788 947.608 172.837 945.269 171.422C944.606 171.022 944.019 170.615 943.507 170.209C944.724 169.481 945.328 167.942 944.883 166.456L943.344 161.324C943.037 160.299 942.276 159.481 941.302 159.129L939.745 158.565C940.03 156.844 939.935 155.016 939.394 153.211C937.579 147.159 931.44 143.652 925.68 145.379C919.921 147.105 916.724 153.412 918.538 159.464C919.11 161.37 920.111 163.024 921.393 164.341L920.665 165.316C920.046 166.146 919.86 167.248 920.167 168.272L921.706 173.404C922.151 174.89 923.503 175.843 924.919 175.782Z" fill="#F4F7FA"/>
<path d="M936.394 154.111C937.073 156.375 936.767 158.689 935.73 160.554L940.344 162.223L941.883 167.355L938.187 168.463C939.079 170.788 941.245 172.734 943.747 174.247C946.402 175.853 949.334 176.911 951.215 177.39L951.491 177.46L953.77 185.062L924.522 193.831L922.243 186.229L922.434 186.019C923.741 184.584 925.607 182.087 926.941 179.285C928.198 176.645 928.936 173.829 928.401 171.397L924.706 172.505L923.167 167.373L925.901 163.711C923.887 162.754 922.248 160.933 921.538 158.565C920.246 154.253 922.523 149.761 926.626 148.531C930.728 147.301 935.102 149.799 936.394 154.111Z" fill="#34364C"/>
</g>
<rect width="75.1615" height="78.9922" transform="translate(931.407 293.131) rotate(-16.6895)" fill="#B7C0D8"/>
<rect width="75.1615" height="78.9922" transform="translate(976.778 444.461) rotate(-16.6895)" fill="#B7C0D8"/>
<g clip-path="url(#clip8_11_2277)">
<rect width="75.1615" height="78.9922" transform="translate(1022.15 595.79) rotate(-16.6895)" fill="#B7C0D8"/>
<path d="M1056.37 596.274C1057.32 595.861 1058.42 595.972 1059.31 596.571L1067.68 602.239C1075.25 601.957 1080.99 606.298 1085.33 612.566C1089.79 619.025 1093.09 627.937 1095.88 637.251C1096.4 638.992 1095.48 640.807 1093.83 641.303L1065.86 649.689C1064.27 650.166 1062.56 649.253 1061.97 647.608C1061.44 646.14 1060.99 643.454 1061.2 640.513L1061.2 640.459C1058.85 642.9 1055.6 643.458 1052.75 642.415C1049.29 641.146 1046.48 637.474 1047.05 632.843C1047.46 629.504 1048.38 627.523 1049.09 626.024C1049.74 624.625 1050.01 624.016 1049.93 622.705C1049.47 614.761 1051.82 609.4 1055.13 606.282C1054.83 605.454 1054.63 604.627 1054.5 603.858C1054.2 601.945 1054.3 600.062 1054.55 598.633C1054.74 597.57 1055.42 596.687 1056.37 596.274Z" fill="#34364C"/>
<path fill-rule="evenodd" clip-rule="evenodd" d="M1066.91 605.58L1057.64 599.306C1057.25 601.557 1057.33 605.295 1059.45 607.379C1058.8 607.64 1058.21 607.948 1057.78 608.302C1055.04 610.559 1052.63 614.998 1053.07 622.598C1053.2 624.798 1052.62 626.045 1051.92 627.528C1051.27 628.926 1050.51 630.534 1050.17 633.348C1049.45 639.146 1057.06 642.448 1060.09 636.468C1061.8 633.105 1063.65 631.373 1065.2 629.919C1067.44 627.825 1069.06 626.308 1068.75 621.334C1069.91 623.35 1071.24 628.531 1067.26 633.129C1063.28 637.727 1064.22 644.615 1064.91 646.536L1092.88 638.151C1087.32 619.615 1080.19 604.301 1066.91 605.58Z" fill="#F4F7FA"/>
<ellipse cx="1061.36" cy="617.535" rx="2.3488" ry="2.46851" transform="rotate(-16.6895 1061.36 617.535)" fill="#34364C"/>
</g>
<g clip-path="url(#clip9_11_2277)">
<rect width="75.1615" height="78.9922" transform="translate(719.36 109.308) rotate(-16.6895)" fill="#E8EDF9"/>
<g clip-path="url(#clip10_11_2277)">
<path fill-rule="evenodd" clip-rule="evenodd" d="M754.611 112.376C754.151 110.659 755.073 108.909 756.694 108.423L761.193 107.074C762.814 106.588 764.547 107.542 765.108 109.229L765.4 110.108L766.875 109.666C768.531 109.169 770.298 110.178 770.82 111.919L771.393 113.831C774.43 112.073 778.115 111.535 781.897 113.26C789.754 116.844 792.607 128.441 787.095 136.905C785.765 138.947 784.74 140.618 784.162 142.195C784.03 142.555 783.927 142.896 783.851 143.221L787.021 142.742C788.572 142.507 790.083 143.51 790.556 145.087L792.328 150.999C792.85 152.74 791.93 154.554 790.273 155.051L758.806 164.485C757.15 164.982 755.383 163.973 754.861 162.232L753.089 156.321C752.616 154.743 753.326 153.075 754.75 152.417L757.661 151.074C757.419 150.843 757.145 150.615 756.837 150.387C755.486 149.388 753.711 148.558 751.477 147.584C742.217 143.549 738.219 132.295 742.809 124.979C745.018 121.458 748.391 119.88 751.894 119.677L751.321 117.765C750.799 116.024 751.719 114.21 753.376 113.713L754.851 113.271L754.611 112.376Z" fill="#F4F7FA"/>
<path fill-rule="evenodd" clip-rule="evenodd" d="M757.639 111.576L762.139 110.227L763.437 114.132L767.82 112.819L769.238 117.548L764.996 118.819L766.807 124.112C766.859 123.985 766.914 123.86 766.972 123.736C769.697 117.931 775.041 113.675 780.703 116.258C786.384 118.85 789.102 127.913 784.478 135.013C781.859 139.035 779.573 142.84 780.983 146.981L787.556 145.987L789.328 151.898L757.861 161.332L756.089 155.421L762.124 152.635C761.023 148.402 757.022 146.482 752.622 144.564C744.855 141.179 742.137 132.115 745.455 126.826C748.762 121.554 755.567 122.168 761.036 125.516C761.152 125.587 761.267 125.662 761.38 125.739L759.981 120.323L755.739 121.595L754.321 116.866L758.703 115.552L757.639 111.576ZM758.829 130.953C762.998 134.863 765.021 140.287 765.743 142.694C764.365 143.11 758.449 142.265 754.516 139.146C751.684 136.9 749.904 132.843 751.112 130.698C752.319 128.554 756.223 128.51 758.829 130.953ZM771.806 127.063C770.476 132.621 771.771 138.264 772.492 140.67C773.871 140.26 778.347 136.299 779.915 131.531C781.045 128.098 780.298 123.73 778.11 122.604C775.922 121.477 772.638 123.589 771.806 127.063Z" fill="#34364D"/>
</g>
</g>
<rect width="75.1615" height="78.9922" transform="translate(764.731 260.637) rotate(-16.6895)" fill="#E8EDF9"/>
<rect width="75.1615" height="78.9922" transform="translate(810.102 411.967) rotate(-16.6895)" fill="#E8EDF9"/>
<g clip-path="url(#clip11_11_2277)">
<rect width="75.1615" height="78.9922" transform="translate(855.473 563.296) rotate(-16.6895)" fill="#E8EDF9"/>
<path d="M894.356 597.275C894.152 597.896 893.885 598.559 893.552 599.258C892.378 601.726 890.702 603.969 889.562 605.221L889.37 605.432C888.604 606.274 888.34 607.491 888.679 608.623L890.958 616.224C891.48 617.966 893.247 618.974 894.903 618.478L924.151 609.709C925.808 609.212 926.728 607.398 926.206 605.657L923.927 598.055C923.588 596.923 922.698 596.052 921.595 595.771L921.319 595.7C919.678 595.282 917.044 594.331 914.706 592.916C914.043 592.515 913.455 592.109 912.944 591.703C914.16 590.975 914.765 589.435 914.319 587.949L912.781 582.817C912.474 581.793 911.712 580.975 910.739 580.623L909.181 580.059C909.466 578.338 909.372 576.509 908.831 574.705C907.016 568.653 900.876 565.146 895.117 566.872C889.358 568.599 886.16 574.906 887.975 580.958C888.546 582.864 889.548 584.518 890.829 585.834L890.101 586.81C889.482 587.639 889.297 588.742 889.604 589.766L891.142 594.898C891.588 596.384 892.94 597.337 894.356 597.275Z" fill="#34364C"/>
<path d="M905.831 575.605C906.51 577.869 906.204 580.183 905.166 582.048L909.781 583.717L911.32 588.849L907.624 589.957C908.515 592.282 910.681 594.228 913.183 595.741C915.838 597.347 918.771 598.405 920.651 598.884L920.927 598.954L923.206 606.556L893.958 615.325L891.679 607.723L891.871 607.513C893.177 606.078 895.044 603.581 896.378 600.779C897.634 598.139 898.373 595.323 897.838 592.891L894.142 593.999L892.603 588.867L895.337 585.205C893.324 584.248 891.685 582.427 890.975 580.059C889.682 575.747 891.96 571.255 896.062 570.025C900.165 568.795 904.538 571.293 905.831 575.605Z" fill="#F4F7FA"/>
</g>
<g clip-path="url(#clip12_11_2277)">
<rect width="75.1615" height="78.9922" transform="translate(575.37 152.479) rotate(-16.6895)" fill="#E8EDF9"/>
<path d="M610.929 166.629C610.366 165.849 609.92 164.959 609.627 163.981C608.276 159.477 610.656 154.785 614.941 153.5C619.226 152.215 623.795 154.825 625.145 159.328C625.54 160.647 625.615 161.988 625.415 163.253C626.197 163.079 627.049 163.219 627.786 163.707C631.793 166.362 635.883 170.634 637.636 176.481C638.889 180.661 638.448 184.169 637.267 186.955L640.976 186.549C642.49 186.384 643.929 187.38 644.388 188.911L646.161 194.822C646.411 195.658 646.336 196.555 645.95 197.315C645.565 198.075 644.902 198.636 644.106 198.874L615.55 207.436C613.893 207.932 612.127 206.923 611.605 205.182L609.833 199.271C609.374 197.742 610.026 196.12 611.379 195.424L614.373 193.884C611.827 192.21 609.501 189.513 608.236 185.295C606.869 180.733 607.36 176.256 608.42 172.62C609.086 170.335 610.003 168.289 610.929 166.629Z" fill="#F4F7FA"/>
<path d="M624.48 179.97L621.481 180.87C619.745 175.081 619.683 168.801 622.111 163.462C622.441 162.46 622.477 161.334 622.145 160.228C621.317 157.465 618.515 155.865 615.886 156.653C613.258 157.441 611.798 160.319 612.626 163.081C613.035 164.444 613.924 165.524 615.036 166.174C612.731 169.293 608.995 176.92 611.236 184.396C613.498 191.939 620.041 193.306 623.181 193.048L612.833 198.372L614.605 204.283L643.161 195.721L641.389 189.81L629.549 191.106C632.328 189.52 636.863 184.809 634.636 177.38C633.178 172.516 629.721 168.826 626.151 166.46C623.978 169.689 623.265 175.916 624.48 179.97Z" fill="#34364C"/>
</g>
<rect width="75.1615" height="78.9922" transform="translate(620.741 303.808) rotate(-16.6895)" fill="#E8EDF9"/>
<rect width="75.1615" height="78.9922" transform="translate(666.111 455.137) rotate(-16.6895)" fill="#E8EDF9"/>
<g clip-path="url(#clip13_11_2277)">
<rect width="75.1615" height="78.9922" transform="translate(711.482 606.466) rotate(-16.6895)" fill="#E8EDF9"/>
<path d="M750.365 640.446C750.161 641.067 749.895 641.73 749.562 642.429C748.387 644.897 746.711 647.14 745.571 648.392L745.379 648.603C744.613 649.444 744.349 650.662 744.689 651.793L746.968 659.395C747.49 661.136 749.256 662.145 750.913 661.648L780.161 652.879C781.818 652.383 782.738 650.568 782.215 648.827L779.936 641.225C779.597 640.094 778.707 639.222 777.604 638.941L777.328 638.871C775.687 638.453 773.054 637.501 770.715 636.087C770.052 635.686 769.465 635.279 768.953 634.873C770.17 634.145 770.774 632.606 770.329 631.12L768.79 625.988C768.483 624.964 767.721 624.145 766.748 623.793L765.191 623.23C765.476 621.508 765.381 619.68 764.84 617.876C763.025 611.823 756.886 608.316 751.126 610.043C745.367 611.77 742.17 618.076 743.984 624.129C744.556 626.034 745.557 627.688 746.839 629.005L746.111 629.981C745.492 630.81 745.306 631.913 745.613 632.937L747.152 638.069C747.597 639.555 748.949 640.507 750.365 640.446Z" fill="#34364C"/>
<path d="M761.84 618.775C762.519 621.039 762.213 623.353 761.176 625.219L765.79 626.887L767.329 632.019L763.633 633.127C764.525 635.453 766.691 637.398 769.193 638.911C771.848 640.517 774.78 641.575 776.661 642.054L776.937 642.125L779.216 649.727L749.968 658.496L747.688 650.894L747.88 650.683C749.187 649.248 751.053 646.752 752.387 643.95C753.644 641.31 754.382 638.494 753.847 636.061L750.152 637.169L748.613 632.037L751.347 628.375C749.333 627.418 747.694 625.597 746.984 623.229C745.691 618.918 747.969 614.426 752.072 613.196C756.174 611.966 760.548 614.464 761.84 618.775Z" fill="#F4F7FA"/>
</g>
<g clip-path="url(#clip14_11_2277)">
<rect width="75.1615" height="78.9922" transform="translate(863.351 66.1374) rotate(-16.6895)" fill="#E8EDF9"/>
<path d="M897.572 66.6212C898.524 66.2085 899.624 66.3199 900.508 66.9188L908.878 72.5861C916.454 72.3042 922.194 76.6455 926.528 82.9138C930.994 89.3729 934.291 98.2841 937.084 107.599C937.606 109.34 936.686 111.154 935.029 111.651L907.06 120.036C905.467 120.514 903.76 119.6 903.171 117.955C902.646 116.488 902.197 113.802 902.399 110.861L902.403 110.807C900.055 113.247 896.806 113.806 893.956 112.762C890.492 111.493 887.677 107.821 888.248 103.191C888.659 99.8516 889.587 97.8703 890.289 96.3718C890.945 94.9721 891.211 94.3633 891.135 93.0529C890.676 85.1081 893.024 79.7479 896.337 76.6298C896.027 75.8019 895.829 74.9742 895.706 74.2056C895.4 72.2926 895.501 70.4095 895.752 68.9802C895.938 67.9173 896.619 67.034 897.572 66.6212Z" fill="#F4F7FA"/>
<path fill-rule="evenodd" clip-rule="evenodd" d="M908.111 75.9271L898.846 69.6537C898.452 71.9044 898.537 75.6429 900.651 77.7262C900.006 77.9872 899.408 78.2952 898.979 78.6491C896.246 80.9068 893.835 85.3455 894.274 92.945C894.402 95.1455 893.817 96.3928 893.122 97.8752C892.467 99.2735 891.714 100.881 891.367 103.695C890.653 109.493 898.261 112.796 901.294 106.815C902.999 103.453 904.85 101.721 906.405 100.266C908.643 98.1728 910.266 96.6552 909.948 91.6818C911.111 93.6975 912.441 98.8785 908.46 103.477C904.478 108.075 905.427 114.962 906.115 116.884L934.084 108.498C928.527 89.9628 921.391 74.6485 908.111 75.9271Z" fill="#34364C"/>
<ellipse cx="902.565" cy="87.8823" rx="2.3488" ry="2.46851" transform="rotate(-16.6895 902.565 87.8823)" fill="#F4F7FA"/>
</g>
<rect width="75.1615" height="78.9922" transform="translate(908.722 217.467) rotate(-16.6895)" fill="#E8EDF9"/>
<rect width="75.1615" height="78.9922" transform="translate(954.093 368.796) rotate(-16.6895)" fill="#E8EDF9"/>
<g clip-path="url(#clip15_11_2277)">
<rect width="75.1615" height="78.9922" transform="translate(999.464 520.125) rotate(-16.6895)" fill="#E8EDF9"/>
<path d="M1038.35 554.105C1038.14 554.726 1037.88 555.388 1037.54 556.088C1036.37 558.556 1034.69 560.799 1033.55 562.051L1033.36 562.261C1032.59 563.103 1032.33 564.321 1032.67 565.452L1034.95 573.054C1035.47 574.795 1037.24 575.804 1038.89 575.307L1068.14 566.538C1069.8 566.041 1070.72 564.227 1070.2 562.486L1067.92 554.884C1067.58 553.753 1066.69 552.881 1065.59 552.6L1065.31 552.53C1063.67 552.111 1061.03 551.16 1058.7 549.746C1058.03 549.345 1057.45 548.938 1056.93 548.532C1058.15 547.804 1058.76 546.265 1058.31 544.779L1056.77 539.647C1056.46 538.622 1055.7 537.804 1054.73 537.452L1053.17 536.889C1053.46 535.167 1053.36 533.339 1052.82 531.535C1051.01 525.482 1044.87 521.975 1039.11 523.702C1033.35 525.428 1030.15 531.735 1031.97 537.788C1032.54 539.693 1033.54 541.347 1034.82 542.664L1034.09 543.639C1033.47 544.469 1033.29 545.571 1033.59 546.596L1035.13 551.728C1035.58 553.214 1036.93 554.166 1038.35 554.105Z" fill="#34364C"/>
<path d="M1049.82 532.434C1050.5 534.698 1050.19 537.012 1049.16 538.877L1053.77 540.546L1055.31 545.678L1051.61 546.786C1052.51 549.112 1054.67 551.057 1057.17 552.57C1059.83 554.176 1062.76 555.234 1064.64 555.713L1064.92 555.783L1067.2 563.385L1037.95 572.154L1035.67 564.553L1035.86 564.342C1037.17 562.907 1039.03 560.41 1040.37 557.609C1041.62 554.969 1042.36 552.153 1041.83 549.72L1038.13 550.828L1036.59 545.696L1039.33 542.034C1037.31 541.077 1035.68 539.256 1034.97 536.888C1033.67 532.577 1035.95 528.084 1040.05 526.854C1044.16 525.625 1048.53 528.123 1049.82 532.434Z" fill="#F4F7FA"/>
</g>
<g clip-path="url(#clip16_11_2277)">
<rect width="75.1615" height="78.9922" transform="translate(503.375 174.064) rotate(-16.6895)" fill="#B7C0D8"/>
<path d="M537.595 174.548C538.548 174.135 539.647 174.246 540.532 174.845L548.902 180.513C556.477 180.231 562.217 184.572 566.551 190.84C571.017 197.299 574.315 206.211 577.107 215.525C577.63 217.266 576.71 219.081 575.053 219.577L547.083 227.963C545.491 228.44 543.784 227.527 543.195 225.882C542.67 224.414 542.22 221.728 542.423 218.787L542.426 218.733C540.079 221.174 536.829 221.732 533.979 220.688C530.516 219.42 527.701 215.748 528.271 211.117C528.682 207.778 529.61 205.797 530.313 204.298C530.969 202.899 531.234 202.29 531.158 200.979C530.699 193.035 533.048 187.674 536.36 184.556C536.051 183.728 535.853 182.901 535.73 182.132C535.424 180.219 535.525 178.336 535.775 176.907C535.961 175.844 536.643 174.96 537.595 174.548Z" fill="#F4F7FA"/>
<path fill-rule="evenodd" clip-rule="evenodd" d="M548.135 183.854L538.87 177.58C538.476 179.831 538.56 183.569 540.675 185.653C540.03 185.914 539.431 186.222 539.003 186.576C536.27 188.833 533.859 193.272 534.298 200.871C534.425 203.072 533.841 204.319 533.146 205.802C532.491 207.2 531.737 208.808 531.391 211.622C530.677 217.419 538.285 220.722 541.317 214.742C543.022 211.379 544.874 209.647 546.429 208.193C548.667 206.099 550.289 204.582 549.972 199.608C551.134 201.624 552.464 206.805 548.483 211.403C544.502 216.001 545.45 222.889 546.138 224.81L574.108 216.425C568.55 197.889 561.414 182.575 548.135 183.854Z" fill="#34364C"/>
<ellipse cx="542.589" cy="195.809" rx="2.3488" ry="2.46851" transform="rotate(-16.6895 542.589 195.809)" fill="#F4F7FA"/>
</g>
<rect width="75.1615" height="78.9922" transform="translate(548.745 325.393) rotate(-16.6895)" fill="#B7C0D8"/>
<rect width="75.1615" height="78.9922" transform="translate(594.116 476.722) rotate(-16.6895)" fill="#B7C0D8"/>
<g clip-path="url(#clip17_11_2277)">
<rect width="75.1615" height="78.9922" transform="translate(639.487 628.052) rotate(-16.6895)" fill="#B7C0D8"/>
<path d="M678.37 662.031C678.166 662.652 677.899 663.315 677.567 664.014C676.392 666.482 674.716 668.725 673.576 669.977L673.384 670.188C672.618 671.029 672.354 672.247 672.693 673.378L674.972 680.98C675.494 682.721 677.261 683.73 678.917 683.234L708.166 674.465C709.822 673.968 710.742 672.154 710.22 670.413L707.941 662.811C707.602 661.679 706.712 660.808 705.609 660.526L705.333 660.456C703.692 660.038 701.058 659.087 698.72 657.672C698.057 657.271 697.469 656.865 696.958 656.458C698.174 655.73 698.779 654.191 698.333 652.705L696.795 647.573C696.488 646.549 695.726 645.73 694.753 645.378L693.195 644.815C693.48 643.094 693.386 641.265 692.845 639.461C691.03 633.409 684.89 629.902 679.131 631.628C673.372 633.355 670.174 639.661 671.989 645.714C672.56 647.62 673.562 649.273 674.843 650.59L674.115 651.566C673.496 652.395 673.311 653.498 673.618 654.522L675.156 659.654C675.602 661.14 676.954 662.093 678.37 662.031Z" fill="#34364C"/>
<path d="M689.845 640.361C690.524 642.625 690.218 644.939 689.18 646.804L693.795 648.473L695.334 653.605L691.638 654.713C692.529 657.038 694.695 658.983 697.197 660.497C699.852 662.102 702.785 663.16 704.665 663.64L704.941 663.71L707.22 671.312L677.972 680.081L675.693 672.479L675.885 672.268C677.191 670.834 679.058 668.337 680.392 665.535C681.648 662.895 682.387 660.079 681.852 657.647L678.156 658.755L676.618 653.623L679.351 649.96C677.338 649.004 675.699 647.183 674.989 644.815C673.696 640.503 675.974 636.011 680.076 634.781C684.179 633.551 688.552 636.049 689.845 640.361Z" fill="#F4F7FA"/>
</g>
<g clip-path="url(#clip18_11_2277)">
<rect width="75.1615" height="78.9922" transform="translate(526.06 249.729) rotate(-16.6895)" fill="#E8EDF9"/>
<path d="M564.943 283.708C564.739 284.329 564.472 284.992 564.139 285.691C562.965 288.159 561.289 290.402 560.149 291.654L559.957 291.865C559.191 292.706 558.927 293.924 559.266 295.055L561.545 302.657C562.067 304.398 563.834 305.407 565.49 304.91L594.738 296.141C596.395 295.645 597.315 293.83 596.793 292.089L594.514 284.487C594.175 283.356 593.285 282.484 592.182 282.203L591.906 282.133C590.265 281.715 587.631 280.763 585.292 279.349C584.63 278.948 584.042 278.541 583.53 278.135C584.747 277.407 585.352 275.868 584.906 274.382L583.368 269.25C583.061 268.226 582.299 267.407 581.326 267.055L579.768 266.492C580.053 264.77 579.958 262.942 579.418 261.138C577.603 255.085 571.463 251.578 565.704 253.305C559.945 255.032 556.747 261.338 558.562 267.391C559.133 269.296 560.135 270.95 561.416 272.267L560.688 273.243C560.069 274.072 559.883 275.175 560.191 276.199L561.729 281.331C562.175 282.817 563.526 283.769 564.943 283.708Z" fill="#F4F7FA"/>
<path d="M576.418 262.037C577.097 264.301 576.791 266.615 575.753 268.481L580.368 270.149L581.907 275.281L578.211 276.389C579.102 278.715 581.268 280.66 583.77 282.173C586.425 283.779 589.358 284.837 591.238 285.316L591.514 285.387L593.793 292.989L564.545 301.758L562.266 294.156L562.458 293.945C563.764 292.51 565.631 290.014 566.965 287.212C568.221 284.572 568.96 281.756 568.425 279.323L564.729 280.431L563.19 275.299L565.924 271.637C563.911 270.68 562.272 268.859 561.562 266.491C560.269 262.18 562.547 257.688 566.649 256.458C570.752 255.228 575.125 257.726 576.418 262.037Z" fill="#34364C"/>
</g>
<rect width="75.1615" height="78.9922" transform="translate(571.431 401.058) rotate(-16.6895)" fill="#E8EDF9"/>
<rect width="75.1615" height="78.9922" transform="translate(616.802 552.387) rotate(-16.6895)" fill="#E8EDF9"/>
<g clip-path="url(#clip19_11_2277)">
<rect width="75.1615" height="78.9922" transform="translate(670.051 206.558) rotate(-16.6895)" fill="#E8EDF9"/>
<rect opacity="0.5" x="670.051" y="206.558" width="75.1615" height="78.9922" transform="rotate(-16.6895 670.051 206.558)" fill="#7B61FF"/>
</g>
<g clip-path="url(#clip20_11_2277)">
<rect width="75.1615" height="78.9922" transform="translate(715.421 357.887) rotate(-16.6895)" fill="#E8EDF9"/>
<rect opacity="0.5" x="715.421" y="357.887" width="75.1615" height="78.9922" transform="rotate(-16.6895 715.421 357.887)" fill="#7B61FF"/>
<path d="M754.304 391.867C754.1 392.487 753.834 393.15 753.501 393.85C752.326 396.318 750.65 398.561 749.51 399.813L749.318 400.023C748.552 400.865 748.288 402.082 748.628 403.214L750.907 410.816C751.429 412.557 753.195 413.566 754.852 413.069L784.1 404.3C785.757 403.803 786.676 401.989 786.154 400.248L783.875 392.646C783.536 391.515 782.646 390.643 781.543 390.362L781.267 390.292C779.626 389.873 776.993 388.922 774.654 387.508C773.991 387.107 773.404 386.7 772.892 386.294C774.109 385.566 774.713 384.027 774.268 382.541L772.729 377.409C772.422 376.384 771.66 375.566 770.687 375.214L769.13 374.651C769.415 372.929 769.32 371.101 768.779 369.297C766.964 363.244 760.824 359.737 755.065 361.464C749.306 363.19 746.109 369.497 747.923 375.55C748.495 377.455 749.496 379.109 750.778 380.426L750.05 381.401C749.43 382.231 749.245 383.333 749.552 384.358L751.091 389.49C751.536 390.976 752.888 391.928 754.304 391.867Z" fill="#F4F7FA"/>
<path d="M765.779 370.196C766.458 372.46 766.152 374.774 765.115 376.639L769.729 378.308L771.268 383.44L767.572 384.548C768.464 386.874 770.63 388.819 773.132 390.332C775.787 391.938 778.719 392.996 780.599 393.475L780.876 393.545L783.155 401.147L753.907 409.916L751.627 402.314L751.819 402.104C753.126 400.669 754.992 398.172 756.326 395.371C757.583 392.731 758.321 389.914 757.786 387.482L754.091 388.59L752.552 383.458L755.286 379.796C753.272 378.839 751.633 377.018 750.923 374.65C749.63 370.339 751.908 365.846 756.011 364.616C760.113 363.386 764.487 365.885 765.779 370.196Z" fill="#34364C"/>
</g>
<rect width="75.1615" height="78.9922" transform="translate(760.792 509.217) rotate(-16.6895)" fill="#E8EDF9"/>
<g clip-path="url(#clip21_11_2277)">
<rect width="75.1615" height="78.9922" transform="translate(814.041 163.387) rotate(-16.6895)" fill="#E8EDF9"/>
<path d="M852.924 197.367C852.72 197.988 852.454 198.65 852.121 199.35C850.946 201.818 849.27 204.061 848.13 205.313L847.938 205.524C847.172 206.365 846.908 207.583 847.247 208.714L849.527 216.316C850.049 218.057 851.815 219.066 853.472 218.569L882.72 209.8C884.376 209.303 885.296 207.489 884.774 205.748L882.495 198.146C882.156 197.015 881.266 196.143 880.163 195.862L879.887 195.792C878.246 195.373 875.613 194.422 873.274 193.008C872.611 192.607 872.024 192.2 871.512 191.794C872.728 191.066 873.333 189.527 872.888 188.041L871.349 182.909C871.042 181.885 870.28 181.066 869.307 180.714L867.749 180.151C868.034 178.429 867.94 176.601 867.399 174.797C865.584 168.744 859.444 165.237 853.685 166.964C847.926 168.691 844.728 174.997 846.543 181.05C847.114 182.955 848.116 184.609 849.398 185.926L848.67 186.901C848.05 187.731 847.865 188.833 848.172 189.858L849.711 194.99C850.156 196.476 851.508 197.428 852.924 197.367Z" fill="#F4F7FA"/>
<path d="M864.399 175.696C865.078 177.96 864.772 180.274 863.735 182.14L868.349 183.808L869.888 188.94L866.192 190.048C867.084 192.374 869.25 194.319 871.752 195.832C874.407 197.438 877.339 198.496 879.219 198.975L879.495 199.046L881.775 206.647L852.526 215.416L850.247 207.815L850.439 207.604C851.746 206.169 853.612 203.672 854.946 200.871C856.202 198.231 856.941 195.415 856.406 192.982L852.71 194.09L851.172 188.958L853.906 185.296C851.892 184.339 850.253 182.518 849.543 180.15C848.25 175.839 850.528 171.347 854.63 170.117C858.733 168.887 863.106 171.385 864.399 175.696Z" fill="#34364C"/>
</g>
<rect width="75.1615" height="78.9922" transform="translate(859.412 314.717) rotate(-16.6895)" fill="#E8EDF9"/>
<rect width="75.1615" height="78.9922" transform="translate(904.783 466.046) rotate(-16.6895)" fill="#E8EDF9"/>
<g clip-path="url(#clip22_11_2277)">
<rect width="75.1615" height="78.9922" transform="translate(950.154 617.375) rotate(-16.6895)" fill="#E8EDF9"/>
<path d="M985.713 631.526C985.15 630.746 984.704 629.856 984.41 628.877C983.06 624.374 985.439 619.681 989.725 618.397C994.01 617.112 998.578 619.721 999.929 624.225C1000.32 625.544 1000.4 626.885 1000.2 628.15C1000.98 627.976 1001.83 628.115 1002.57 628.604C1006.58 631.259 1010.67 635.53 1012.42 641.377C1013.67 645.557 1013.23 649.065 1012.05 651.852L1015.76 651.446C1017.27 651.28 1018.71 652.276 1019.17 653.807L1020.94 659.719C1021.2 660.555 1021.12 661.452 1020.73 662.211C1020.35 662.971 1019.69 663.532 1018.89 663.771L990.334 672.332C988.677 672.829 986.911 671.82 986.389 670.079L984.617 664.168C984.158 662.638 984.81 661.016 986.163 660.32L989.157 658.781C986.611 657.107 984.285 654.409 983.02 650.192C981.652 645.63 982.143 641.153 983.203 637.517C983.87 635.231 984.787 633.186 985.713 631.526Z" fill="#34364C"/>
<path d="M999.264 644.867L996.264 645.767C994.529 639.978 994.467 633.697 996.895 628.359C997.225 627.357 997.261 626.231 996.929 625.124C996.101 622.362 993.298 620.761 990.67 621.549C988.041 622.337 986.582 625.216 987.41 627.978C987.819 629.341 988.708 630.421 989.82 631.071C987.515 634.19 983.779 641.817 986.02 649.292C988.282 656.836 994.825 658.203 997.965 657.945L987.617 663.268L989.389 669.18L1017.94 660.618L1016.17 654.707L1004.33 656.003C1007.11 654.417 1011.65 649.706 1009.42 642.277C1007.96 637.412 1004.51 633.723 1000.94 631.357C998.761 634.586 998.049 640.813 999.264 644.867Z" fill="#F4F7FA"/>
</g>
<g clip-path="url(#clip23_11_2277)">
<rect width="75.1615" height="78.9922" transform="translate(958.032 120.217) rotate(-16.6895)" fill="#E8EDF9"/>
<path d="M996.915 154.196C996.711 154.817 996.444 155.48 996.111 156.179C994.937 158.647 993.261 160.89 992.121 162.142L991.929 162.353C991.162 163.194 990.899 164.412 991.238 165.543L993.517 173.145C994.039 174.886 995.806 175.895 997.462 175.399L1026.71 166.63C1028.37 166.133 1029.29 164.319 1028.76 162.577L1026.49 154.976C1026.15 153.844 1025.26 152.973 1024.15 152.691L1023.88 152.621C1022.24 152.203 1019.6 151.252 1017.26 149.837C1016.6 149.436 1016.01 149.03 1015.5 148.623C1016.72 147.895 1017.32 146.356 1016.88 144.87L1015.34 139.738C1015.03 138.714 1014.27 137.895 1013.3 137.543L1011.74 136.98C1012.03 135.259 1011.93 133.43 1011.39 131.626C1009.57 125.573 1003.43 122.067 997.676 123.793C991.917 125.52 988.719 131.826 990.534 137.879C991.105 139.785 992.107 141.438 993.388 142.755L992.66 143.731C992.041 144.56 991.855 145.663 992.162 146.687L993.701 151.819C994.147 153.305 995.498 154.258 996.915 154.196Z" fill="#F4F7FA"/>
<path d="M1008.39 132.526C1009.07 134.79 1008.76 137.104 1007.73 138.969L1012.34 140.638L1013.88 145.77L1010.18 146.878C1011.07 149.203 1013.24 151.148 1015.74 152.662C1018.4 154.267 1021.33 155.325 1023.21 155.805L1023.49 155.875L1025.77 163.477L996.517 172.246L994.238 164.644L994.43 164.433C995.736 162.999 997.603 160.502 998.936 157.7C1000.19 155.06 1000.93 152.244 1000.4 149.812L996.701 150.92L995.162 145.788L997.896 142.125C995.883 141.169 994.243 139.348 993.534 136.98C992.241 132.668 994.519 128.176 998.621 126.946C1002.72 125.716 1007.1 128.214 1008.39 132.526Z" fill="#34364C"/>
</g>
<rect width="75.1615" height="78.9922" transform="translate(1003.4 271.546) rotate(-16.6895)" fill="#E8EDF9"/>
<rect width="75.1615" height="78.9922" transform="translate(1048.77 422.875) rotate(-16.6895)" fill="#E8EDF9"/>
<g clip-path="url(#clip24_11_2277)">
<rect width="75.1615" height="78.9922" transform="translate(791.356 87.7227) rotate(-16.6895)" fill="#B7C0D8"/>
<path d="M826.915 101.873C826.352 101.094 825.906 100.204 825.613 99.2249C824.262 94.7212 826.642 90.0288 830.927 88.744C835.212 87.4592 839.78 90.0686 841.131 94.5723C841.526 95.8915 841.601 97.232 841.401 98.4972C842.183 98.3234 843.035 98.4628 843.772 98.9514C847.779 101.606 851.869 105.878 853.622 111.725C854.875 115.905 854.434 119.413 853.253 122.199L856.962 121.794C858.476 121.628 859.915 122.624 860.374 124.155L862.147 130.066C862.397 130.902 862.322 131.799 861.936 132.559C861.551 133.319 860.888 133.88 860.092 134.118L831.536 142.68C829.879 143.176 828.113 142.168 827.591 140.426L825.819 134.515C825.36 132.986 826.012 131.364 827.365 130.668L830.359 129.128C827.813 127.454 825.487 124.757 824.222 120.539C822.854 115.977 823.345 111.5 824.406 107.864C825.072 105.579 825.989 103.533 826.915 101.873Z" fill="#F4F7FA"/>
<path d="M840.466 115.215L837.467 116.114C835.731 110.325 835.669 104.045 838.097 98.7063C838.427 97.7041 838.463 96.5786 838.131 95.4717C837.303 92.7092 834.501 91.1086 831.872 91.8967C829.244 92.6848 827.784 95.563 828.612 98.3255C829.021 99.6884 829.91 100.768 831.022 101.418C828.717 104.537 824.981 112.164 827.222 119.64C829.484 127.183 836.027 128.55 839.167 128.292L828.819 133.616L830.591 139.527L859.147 130.966L857.375 125.054L845.535 126.35C848.314 124.764 852.849 120.053 850.622 112.624C849.164 107.76 845.707 104.07 842.137 101.704C839.964 104.933 839.251 111.16 840.466 115.215Z" fill="#34364C"/>
</g>
<rect width="75.1615" height="78.9922" transform="translate(836.727 239.052) rotate(-16.6895)" fill="#B7C0D8"/>
<g clip-path="url(#clip25_11_2277)">
<rect width="75.1615" height="78.9922" transform="translate(882.097 390.381) rotate(-16.6895)" fill="#B7C0D8"/>
<path d="M920.981 424.361C920.777 424.982 920.51 425.644 920.177 426.344C919.002 428.812 917.327 431.055 916.186 432.307L915.995 432.517C915.228 433.359 914.965 434.577 915.304 435.708L917.583 443.31C918.105 445.051 919.871 446.06 921.528 445.563L950.776 436.794C952.433 436.297 953.353 434.483 952.831 432.742L950.551 425.14C950.212 424.009 949.322 423.137 948.219 422.856L947.943 422.786C946.302 422.367 943.669 421.416 941.33 420.002C940.667 419.601 940.08 419.194 939.568 418.788C940.785 418.06 941.389 416.521 940.944 415.035L939.405 409.903C939.098 408.878 938.337 408.06 937.363 407.708L935.806 407.145C936.091 405.423 935.996 403.595 935.455 401.791C933.64 395.738 927.501 392.231 921.741 393.958C915.982 395.684 912.785 401.991 914.599 408.044C915.171 409.949 916.172 411.603 917.454 412.92L916.726 413.895C916.107 414.725 915.921 415.827 916.228 416.852L917.767 421.984C918.212 423.47 919.564 424.422 920.981 424.361Z" fill="#34364C"/>
<path d="M932.455 402.69C933.134 404.954 932.828 407.268 931.791 409.133L936.405 410.802L937.944 415.934L934.248 417.042C935.14 419.368 937.306 421.313 939.808 422.826C942.463 424.432 945.395 425.49 947.276 425.969L947.552 426.039L949.831 433.641L920.583 442.41L918.304 434.809L918.495 434.598C919.802 433.163 921.668 430.666 923.002 427.865C924.259 425.225 924.997 422.408 924.462 419.976L920.767 421.084L919.228 415.952L921.962 412.29C919.948 411.333 918.309 409.512 917.599 407.144C916.307 402.833 918.584 398.34 922.687 397.11C926.789 395.88 931.163 398.379 932.455 402.69Z" fill="#F4F7FA"/>
</g>
<rect width="75.1615" height="78.9922" transform="translate(927.468 541.711) rotate(-16.6895)" fill="#B7C0D8"/>
<g clip-path="url(#clip26_11_2277)">
<rect width="75.1615" height="78.9922" transform="translate(647.365 130.893) rotate(-16.6895)" fill="#B7C0D8"/>
<path d="M675.062 141.488C675.296 142.266 675.639 142.979 676.069 143.613L674.807 144.787C673.179 143.818 671.207 143.503 669.299 144.075C665.571 145.192 663.502 149.274 664.676 153.192C665.723 156.684 668.995 158.867 672.333 158.508L679.732 170.257C679.886 170.502 680.07 170.726 680.28 170.922L683.387 173.832L683.375 173.838C682.022 174.534 681.37 176.156 681.828 177.686L683.601 183.597C684.123 185.338 685.889 186.347 687.546 185.85L716.101 177.289C716.897 177.05 717.56 176.489 717.946 175.729C718.331 174.97 718.407 174.073 718.156 173.237L716.384 167.325C715.925 165.794 714.485 164.798 712.971 164.964L712.907 164.971L713.898 160.843C713.964 160.564 713.995 160.275 713.989 159.986L713.704 146.105C716.689 144.568 718.22 140.945 717.173 137.453C715.998 133.535 712.024 131.265 708.296 132.383C706.386 132.955 704.912 134.306 704.086 136.015L702.389 135.729C702.4 134.961 702.295 134.174 702.061 133.393C700.886 129.476 696.912 127.206 693.184 128.323C689.457 129.441 687.387 133.523 688.561 137.44C687.387 133.523 683.413 131.253 679.685 132.371C675.957 133.488 673.888 137.57 675.062 141.488Z" fill="#F4F7FA"/>
<path d="M684.261 142.74C685.497 141.75 686.065 140.018 685.562 138.34C684.909 136.163 682.701 134.902 680.63 135.523C678.559 136.144 677.41 138.412 678.062 140.588C678.665 142.6 680.596 143.829 682.52 143.514L685.111 158.233L674.843 153.291C675.364 152.351 675.518 151.185 675.176 150.044C674.523 147.868 672.315 146.606 670.244 147.227C668.173 147.848 667.024 150.116 667.676 152.292C668.329 154.469 670.536 155.73 672.607 155.109C672.972 155 673.308 154.839 673.611 154.638L682.347 168.51L688.929 174.677L684.828 176.786L686.6 182.698L715.156 174.136L713.384 168.225L708.742 168.733L710.845 159.966L710.508 143.575C710.871 143.577 711.24 143.526 711.605 143.417C713.676 142.796 714.826 140.528 714.173 138.352C713.52 136.175 711.313 134.914 709.242 135.535C707.171 136.156 706.021 138.424 706.674 140.6C707.016 141.741 707.785 142.63 708.738 143.129L702.882 152.904L696.948 139.189C698.728 138.393 699.664 136.304 699.061 134.293C698.408 132.116 696.2 130.855 694.13 131.476C692.059 132.097 690.909 134.365 691.561 136.541C692.064 138.219 693.492 139.353 695.068 139.5L693.524 153.992L684.261 142.74Z" fill="#34364C"/>
</g>
<rect width="75.1615" height="78.9922" transform="translate(692.736 282.223) rotate(-16.6895)" fill="#B7C0D8"/>
<rect opacity="0.5" x="725.395" y="300.618" width="24" height="24" rx="12" transform="rotate(-16.6895 725.395 300.618)" fill="#7B61FF"/>
<rect width="75.1615" height="78.9922" transform="translate(738.107 433.552) rotate(-16.6895)" fill="#B7C0D8"/>
<g clip-path="url(#clip27_11_2277)">
<rect width="75.1615" height="78.9922" transform="translate(783.478 584.881) rotate(-16.6895)" fill="#B7C0D8"/>
<path d="M822.361 618.861C822.157 619.481 821.89 620.144 821.557 620.844C820.382 623.312 818.707 625.555 817.566 626.807L817.375 627.017C816.608 627.859 816.345 629.076 816.684 630.208L818.963 637.81C819.485 639.551 821.251 640.56 822.908 640.063L852.156 631.294C853.813 630.797 854.733 628.983 854.211 627.242L851.932 619.64C851.592 618.509 850.702 617.637 849.599 617.356L849.323 617.286C847.682 616.867 845.049 615.916 842.71 614.502C842.047 614.101 841.46 613.694 840.948 613.288C842.165 612.56 842.77 611.021 842.324 609.535L840.785 604.403C840.478 603.378 839.717 602.56 838.743 602.208L837.186 601.645C837.471 599.923 837.376 598.095 836.835 596.291C835.021 590.238 828.881 586.731 823.122 588.458C817.362 590.184 814.165 596.491 815.979 602.543C816.551 604.449 817.552 606.103 818.834 607.42L818.106 608.395C817.487 609.225 817.301 610.327 817.608 611.352L819.147 616.484C819.592 617.97 820.944 618.922 822.361 618.861Z" fill="#34364C"/>
<path d="M833.835 597.19C834.514 599.454 834.209 601.768 833.171 603.633L837.786 605.302L839.324 610.434L835.629 611.542C836.52 613.867 838.686 615.813 841.188 617.326C843.843 618.932 846.775 619.99 848.656 620.469L848.932 620.539L851.211 628.141L821.963 636.91L819.684 629.308L819.875 629.098C821.182 627.663 823.049 625.166 824.382 622.365C825.639 619.725 826.377 616.908 825.842 614.476L822.147 615.584L820.608 610.452L823.342 606.79C821.329 605.833 819.689 604.012 818.979 601.644C817.687 597.333 819.964 592.84 824.067 591.61C828.169 590.38 832.543 592.878 833.835 597.19Z" fill="#F4F7FA"/>
</g>
<g clip-path="url(#clip28_11_2277)">
<rect width="75.1615" height="78.9922" transform="translate(935.346 44.5521) rotate(-16.6895)" fill="#B7C0D8"/>
<path d="M967.862 49.4069C968.408 49.2431 968.966 49.243 969.488 49.379C969.849 48.9784 970.315 48.6713 970.861 48.5075L979.111 46.0342C979.657 45.8704 980.216 45.8703 980.737 46.0063C981.098 45.6057 981.564 45.2986 982.111 45.1348L989.61 42.8863C991.267 42.3896 993.033 43.3985 993.555 45.1396L995.682 52.2332C995.98 53.2255 995.815 54.2932 995.238 55.1151L991.703 60.1514L996.731 72.1558C998.062 75.3339 1000.01 76.5634 1003.02 78.8957C1003.58 79.3247 1003.98 79.9253 1004.19 80.6075L1006.08 86.9128C1006.6 88.654 1005.68 90.4682 1004.02 90.9649L974.777 99.7339C973.12 100.231 971.354 99.2218 970.832 97.4806L968.941 91.1753C968.737 90.4931 968.748 89.7662 968.974 89.1038C970.202 85.5017 971.156 83.4006 970.519 80.0144L968.113 67.2242L962.39 64.9634C961.457 64.5945 960.732 63.7933 960.434 62.801L958.308 55.7074C957.786 53.9663 958.705 52.1521 960.362 51.6554L967.862 49.4069Z" fill="#F4F7FA"/>
<path d="M961.307 54.8081L968.807 52.5596L970.225 57.2886L973.225 56.3892L971.807 51.6602L980.056 49.1869L981.474 53.9159L984.474 53.0165L983.056 48.2875L990.555 46.039L992.682 53.1326L988.1 59.6604L993.854 73.3978L973.605 79.4687L970.852 64.8319L963.434 61.9016L961.307 54.8081Z" fill="#34364C"/>
<path d="M974.55 82.6214L994.799 76.5505L1001.19 81.5068L1003.08 87.8122L973.832 96.5812L971.941 90.2759L974.55 82.6214Z" fill="#34364C"/>
</g>
<rect width="75.1615" height="78.9922" transform="translate(980.717 195.881) rotate(-16.6895)" fill="#B7C0D8"/>
<rect width="75.1615" height="78.9922" transform="translate(1026.09 347.211) rotate(-16.6895)" fill="#B7C0D8"/>
<g clip-path="url(#clip29_11_2277)">
<rect width="75.1615" height="78.9922" transform="translate(1071.46 498.54) rotate(-16.6895)" fill="#B7C0D8"/>
</g>
</g>
</g>
<defs>
<filter id="filter0_d_11_2277" x="405.419" y="-0.993643" width="809.367" height="829.92" filterUnits="userSpaceOnUse" color-interpolation-filters="sRGB">
<feFlood flood-opacity="0" result="BackgroundImageFix"/>
<feColorMatrix in="SourceAlpha" type="matrix" values="0 0 0 0 0 0 0 0 0 0 0 0 0 0 0 0 0 0 127 0" result="hardAlpha"/>
<feOffset dy="2"/>
<feGaussianBlur stdDeviation="8"/>
<feColorMatrix type="matrix" values="0 0 0 0 0.783854 0 0 0 0 0.809375 0 0 0 0 0.875 0 0 0 0.5 0"/>
<feBlend mode="normal" in2="BackgroundImageFix" result="effect1_dropShadow_11_2277"/>
<feBlend mode="normal" in="SourceGraphic" in2="effect1_dropShadow_11_2277" result="shape"/>
</filter>
<clipPath id="clip0_11_2277">
<rect width="75.1615" height="78.9922" fill="white" transform="translate(431.379 195.649) rotate(-16.6895)"/>
</clipPath>
<clipPath id="clip1_11_2277">
<rect width="75.1615" height="78.9922" fill="white" transform="translate(567.492 649.637) rotate(-16.6895)"/>
</clipPath>
<clipPath id="clip2_11_2277">
<rect width="75.1615" height="78.9922" fill="white" transform="translate(454.065 271.314) rotate(-16.6895)"/>
</clipPath>
<clipPath id="clip3_11_2277">
<rect width="75.1615" height="78.9922" fill="white" transform="translate(598.055 228.143) rotate(-16.6895)"/>
</clipPath>
<clipPath id="clip4_11_2277">
<rect width="75.1615" height="78.9922" fill="white" transform="translate(742.046 184.973) rotate(-16.6895)"/>
</clipPath>
<clipPath id="clip5_11_2277">
<rect width="75.1615" height="78.9922" fill="white" transform="translate(878.158 638.961) rotate(-16.6895)"/>
</clipPath>
<clipPath id="clip6_11_2277">
<rect width="56.3711" height="59.2441" fill="white" transform="translate(889.993 645.72) rotate(-16.6895)"/>
</clipPath>
<clipPath id="clip7_11_2277">
<rect width="75.1615" height="78.9922" fill="white" transform="translate(886.036 141.802) rotate(-16.6895)"/>
</clipPath>
<clipPath id="clip8_11_2277">
<rect width="75.1615" height="78.9922" fill="white" transform="translate(1022.15 595.79) rotate(-16.6895)"/>
</clipPath>
<clipPath id="clip9_11_2277">
<rect width="75.1615" height="78.9922" fill="white" transform="translate(719.36 109.308) rotate(-16.6895)"/>
</clipPath>
<clipPath id="clip10_11_2277">
<rect width="56.3711" height="59.2441" fill="white" transform="translate(731.195 116.068) rotate(-16.6895)"/>
</clipPath>
<clipPath id="clip11_11_2277">
<rect width="75.1615" height="78.9922" fill="white" transform="translate(855.473 563.296) rotate(-16.6895)"/>
</clipPath>
<clipPath id="clip12_11_2277">
<rect width="75.1615" height="78.9922" fill="white" transform="translate(575.37 152.479) rotate(-16.6895)"/>
</clipPath>
<clipPath id="clip13_11_2277">
<rect width="75.1615" height="78.9922" fill="white" transform="translate(711.482 606.466) rotate(-16.6895)"/>
</clipPath>
<clipPath id="clip14_11_2277">
<rect width="75.1615" height="78.9922" fill="white" transform="translate(863.351 66.1374) rotate(-16.6895)"/>
</clipPath>
<clipPath id="clip15_11_2277">
<rect width="75.1615" height="78.9922" fill="white" transform="translate(999.464 520.125) rotate(-16.6895)"/>
</clipPath>
<clipPath id="clip16_11_2277">
<rect width="75.1615" height="78.9922" fill="white" transform="translate(503.375 174.064) rotate(-16.6895)"/>
</clipPath>
<clipPath id="clip17_11_2277">
<rect width="75.1615" height="78.9922" fill="white" transform="translate(639.487 628.052) rotate(-16.6895)"/>
</clipPath>
<clipPath id="clip18_11_2277">
<rect width="75.1615" height="78.9922" fill="white" transform="translate(526.06 249.729) rotate(-16.6895)"/>
</clipPath>
<clipPath id="clip19_11_2277">
<rect width="75.1615" height="78.9922" fill="white" transform="translate(670.051 206.558) rotate(-16.6895)"/>
</clipPath>
<clipPath id="clip20_11_2277">
<rect width="75.1615" height="78.9922" fill="white" transform="translate(715.421 357.887) rotate(-16.6895)"/>
</clipPath>
<clipPath id="clip21_11_2277">
<rect width="75.1615" height="78.9922" fill="white" transform="translate(814.041 163.387) rotate(-16.6895)"/>
</clipPath>
<clipPath id="clip22_11_2277">
<rect width="75.1615" height="78.9922" fill="white" transform="translate(950.154 617.375) rotate(-16.6895)"/>
</clipPath>
<clipPath id="clip23_11_2277">
<rect width="75.1615" height="78.9922" fill="white" transform="translate(958.032 120.217) rotate(-16.6895)"/>
</clipPath>
<clipPath id="clip24_11_2277">
<rect width="75.1615" height="78.9922" fill="white" transform="translate(791.356 87.7227) rotate(-16.6895)"/>
</clipPath>
<clipPath id="clip25_11_2277">
<rect width="75.1615" height="78.9922" fill="white" transform="translate(882.097 390.381) rotate(-16.6895)"/>
</clipPath>
<clipPath id="clip26_11_2277">
<rect width="75.1615" height="78.9922" fill="white" transform="translate(647.365 130.893) rotate(-16.6895)"/>
</clipPath>
<clipPath id="clip27_11_2277">
<rect width="75.1615" height="78.9922" fill="white" transform="translate(783.478 584.881) rotate(-16.6895)"/>
</clipPath>
<clipPath id="clip28_11_2277">
<rect width="75.1615" height="78.9922" fill="white" transform="translate(935.346 44.5521) rotate(-16.6895)"/>
</clipPath>
<clipPath id="clip29_11_2277">
<rect width="75.1615" height="78.9922" fill="white" transform="translate(1071.46 498.54) rotate(-16.6895)"/>
</clipPath>
</defs>
</svg>
