<svg width="219" height="42" viewBox="0 0 219 42" fill="none" xmlns="http://www.w3.org/2000/svg">
    <path d="M136.705 24.5747H142.686C142.606 26.3065 142.139 27.8332 141.285 29.1548C140.43 30.4764 139.245 31.5075 137.73 32.248C136.226 32.9772 134.449 33.3418 132.398 33.3418C130.735 33.3418 129.248 33.0627 127.938 32.5044C126.639 31.9461 125.534 31.1429 124.622 30.0947C123.722 29.0465 123.033 27.7762 122.554 26.2837C122.087 24.7912 121.854 23.1107 121.854 21.2422V19.8921C121.854 18.0236 122.098 16.3431 122.588 14.8506C123.09 13.3467 123.796 12.0706 124.708 11.0225C125.63 9.96289 126.736 9.15397 128.023 8.5957C129.31 8.03743 130.74 7.7583 132.312 7.7583C134.477 7.7583 136.306 8.14567 137.798 8.92041C139.291 9.69515 140.447 10.7604 141.268 12.1162C142.088 13.4606 142.572 14.993 142.72 16.7134H136.739C136.716 15.7791 136.556 14.9987 136.26 14.3721C135.964 13.734 135.497 13.2555 134.859 12.9365C134.221 12.6175 133.372 12.458 132.312 12.458C131.572 12.458 130.928 12.5947 130.381 12.8682C129.834 13.1416 129.379 13.5745 129.014 14.167C128.65 14.7594 128.376 15.5285 128.194 16.4741C128.023 17.4084 127.938 18.5363 127.938 19.8579V21.2422C127.938 22.5638 128.017 23.6917 128.177 24.626C128.336 25.5602 128.593 26.3236 128.946 26.916C129.299 27.5085 129.755 27.9471 130.313 28.2319C130.883 28.5054 131.578 28.6421 132.398 28.6421C133.309 28.6421 134.078 28.4997 134.705 28.2148C135.332 27.9186 135.816 27.4743 136.158 26.8818C136.5 26.278 136.682 25.509 136.705 24.5747ZM150.889 6.75V33H145.13V6.75H150.889ZM150.206 23.1221L148.855 23.1562C148.855 21.8574 149.015 20.6611 149.334 19.5674C149.653 18.4736 150.109 17.5223 150.701 16.7134C151.294 15.9045 152.006 15.2778 152.837 14.8335C153.669 14.3892 154.592 14.167 155.606 14.167C156.517 14.167 157.349 14.298 158.101 14.5601C158.864 14.8221 159.52 15.2437 160.066 15.8247C160.625 16.4058 161.052 17.1634 161.348 18.0977C161.656 19.0319 161.81 20.1712 161.81 21.5156V33H156.016V21.4814C156.016 20.7295 155.908 20.1484 155.691 19.7383C155.486 19.3167 155.19 19.0262 154.803 18.8667C154.415 18.6958 153.943 18.6104 153.384 18.6104C152.712 18.6104 152.165 18.7243 151.744 18.9521C151.322 19.18 150.997 19.499 150.77 19.9092C150.553 20.3079 150.405 20.7808 150.325 21.3276C150.245 21.8745 150.206 22.4727 150.206 23.1221ZM173.96 33.3418C172.457 33.3418 171.112 33.1082 169.927 32.6411C168.742 32.1626 167.74 31.5075 166.919 30.6758C166.111 29.8441 165.49 28.887 165.057 27.8047C164.635 26.7223 164.424 25.5773 164.424 24.3696V23.7202C164.424 22.3644 164.612 21.1112 164.988 19.9604C165.364 18.7983 165.923 17.7843 166.663 16.9185C167.404 16.0526 168.332 15.3804 169.449 14.9019C170.565 14.4119 171.864 14.167 173.345 14.167C174.655 14.167 175.829 14.3778 176.866 14.7993C177.903 15.2209 178.78 15.8247 179.498 16.6108C180.227 17.397 180.779 18.3483 181.155 19.4648C181.543 20.5814 181.736 21.8346 181.736 23.2246V25.5659H166.629V21.96H176.114V21.5156C176.125 20.9004 176.017 20.3763 175.789 19.9434C175.573 19.5104 175.254 19.18 174.832 18.9521C174.41 18.7243 173.898 18.6104 173.294 18.6104C172.667 18.6104 172.149 18.7471 171.739 19.0205C171.34 19.2939 171.027 19.6699 170.799 20.1484C170.582 20.6156 170.429 21.1567 170.337 21.772C170.246 22.3872 170.201 23.0366 170.201 23.7202V24.3696C170.201 25.0532 170.292 25.6742 170.474 26.2324C170.668 26.7907 170.941 27.2692 171.294 27.668C171.659 28.0553 172.092 28.3573 172.593 28.5737C173.106 28.7902 173.687 28.8984 174.336 28.8984C175.123 28.8984 175.897 28.7503 176.661 28.4541C177.424 28.1579 178.079 27.668 178.626 26.9844L181.241 30.0947C180.865 30.6302 180.329 31.1486 179.634 31.6499C178.951 32.1512 178.13 32.5614 177.173 32.8804C176.216 33.188 175.145 33.3418 173.96 33.3418ZM193.768 27.8047C193.768 27.4857 193.659 27.2122 193.443 26.9844C193.238 26.7451 192.873 26.5286 192.349 26.335C191.825 26.1299 191.09 25.9248 190.145 25.7197C189.244 25.526 188.396 25.2697 187.598 24.9507C186.812 24.6317 186.123 24.2443 185.53 23.7886C184.938 23.3328 184.471 22.7917 184.129 22.165C183.799 21.5384 183.633 20.8206 183.633 20.0117C183.633 19.2256 183.799 18.485 184.129 17.79C184.471 17.0837 184.966 16.4627 185.616 15.9272C186.277 15.3804 187.08 14.9531 188.025 14.6455C188.971 14.3265 190.048 14.167 191.255 14.167C192.919 14.167 194.354 14.4233 195.562 14.936C196.77 15.4373 197.698 16.1437 198.348 17.0552C199.008 17.9552 199.339 18.9977 199.339 20.1826H193.58C193.58 19.7155 193.5 19.3167 193.34 18.9863C193.192 18.6559 192.947 18.4053 192.605 18.2344C192.264 18.0521 191.808 17.9609 191.238 17.9609C190.84 17.9609 190.475 18.035 190.145 18.1831C189.826 18.3312 189.569 18.5363 189.375 18.7983C189.182 19.0604 189.085 19.368 189.085 19.7212C189.085 19.9718 189.142 20.1997 189.256 20.4048C189.381 20.5985 189.569 20.7808 189.82 20.9517C190.07 21.1112 190.389 21.2593 190.777 21.396C191.164 21.5213 191.631 21.6353 192.178 21.7378C193.42 21.9657 194.582 22.2904 195.665 22.7119C196.747 23.1335 197.624 23.7316 198.296 24.5063C198.98 25.2811 199.322 26.3236 199.322 27.6338C199.322 28.4541 199.134 29.2118 198.758 29.9067C198.382 30.5903 197.841 31.1942 197.134 31.7183C196.428 32.231 195.579 32.6297 194.588 32.9146C193.597 33.1994 192.48 33.3418 191.238 33.3418C189.472 33.3418 187.98 33.0285 186.761 32.4019C185.542 31.7638 184.619 30.9663 183.992 30.0093C183.377 29.0409 183.069 28.061 183.069 27.0698H188.436C188.458 27.6395 188.595 28.1066 188.846 28.4712C189.108 28.8358 189.455 29.1035 189.888 29.2744C190.321 29.4453 190.822 29.5308 191.392 29.5308C191.916 29.5308 192.349 29.4567 192.691 29.3086C193.044 29.1605 193.312 28.9611 193.494 28.7104C193.676 28.4484 193.768 28.1465 193.768 27.8047ZM211.712 27.8047C211.712 27.4857 211.604 27.2122 211.387 26.9844C211.182 26.7451 210.818 26.5286 210.293 26.335C209.769 26.1299 209.035 25.9248 208.089 25.7197C207.189 25.526 206.34 25.2697 205.542 24.9507C204.756 24.6317 204.067 24.2443 203.475 23.7886C202.882 23.3328 202.415 22.7917 202.073 22.165C201.743 21.5384 201.578 20.8206 201.578 20.0117C201.578 19.2256 201.743 18.485 202.073 17.79C202.415 17.0837 202.911 16.4627 203.56 15.9272C204.221 15.3804 205.024 14.9531 205.97 14.6455C206.915 14.3265 207.992 14.167 209.2 14.167C210.863 14.167 212.299 14.4233 213.506 14.936C214.714 15.4373 215.643 16.1437 216.292 17.0552C216.953 17.9552 217.283 18.9977 217.283 20.1826H211.524C211.524 19.7155 211.444 19.3167 211.285 18.9863C211.137 18.6559 210.892 18.4053 210.55 18.2344C210.208 18.0521 209.752 17.9609 209.183 17.9609C208.784 17.9609 208.419 18.035 208.089 18.1831C207.77 18.3312 207.514 18.5363 207.32 18.7983C207.126 19.0604 207.029 19.368 207.029 19.7212C207.029 19.9718 207.086 20.1997 207.2 20.4048C207.326 20.5985 207.514 20.7808 207.764 20.9517C208.015 21.1112 208.334 21.2593 208.721 21.396C209.109 21.5213 209.576 21.6353 210.123 21.7378C211.364 21.9657 212.527 22.2904 213.609 22.7119C214.691 23.1335 215.569 23.7316 216.241 24.5063C216.924 25.2811 217.266 26.3236 217.266 27.6338C217.266 28.4541 217.078 29.2118 216.702 29.9067C216.326 30.5903 215.785 31.1942 215.079 31.7183C214.372 32.231 213.523 32.6297 212.532 32.9146C211.541 33.1994 210.424 33.3418 209.183 33.3418C207.417 33.3418 205.924 33.0285 204.705 32.4019C203.486 31.7638 202.563 30.9663 201.937 30.0093C201.321 29.0409 201.014 28.061 201.014 27.0698H206.38C206.403 27.6395 206.539 28.1066 206.79 28.4712C207.052 28.8358 207.4 29.1035 207.833 29.2744C208.265 29.4453 208.767 29.5308 209.336 29.5308C209.861 29.5308 210.293 29.4567 210.635 29.3086C210.988 29.1605 211.256 28.9611 211.438 28.7104C211.621 28.4484 211.712 28.1465 211.712 27.8047Z" fill="white"/>
    <path d="M15.6509 26.3862C15.6509 25.9989 15.5939 25.6514 15.48 25.3438C15.366 25.0247 15.1553 24.7285 14.8477 24.4551C14.54 24.1816 14.0957 23.9082 13.5146 23.6348C12.945 23.3499 12.193 23.0537 11.2588 22.7461C10.165 22.3815 9.11117 21.9714 8.09717 21.5156C7.08317 21.0485 6.17741 20.5073 5.37988 19.8921C4.58236 19.2655 3.95003 18.5363 3.48291 17.7046C3.01579 16.8615 2.78223 15.8817 2.78223 14.7651C2.78223 13.6942 3.02148 12.7314 3.5 11.877C3.97852 11.0111 4.64502 10.2762 5.49951 9.67236C6.3654 9.05713 7.37939 8.59001 8.5415 8.271C9.70361 7.94059 10.974 7.77539 12.3525 7.77539C14.1755 7.77539 15.7819 8.0944 17.1719 8.73242C18.5732 9.35905 19.667 10.2534 20.4531 11.4155C21.2507 12.5662 21.6494 13.9277 21.6494 15.5H15.6851C15.6851 14.8734 15.554 14.3208 15.292 13.8423C15.0413 13.3638 14.6597 12.9878 14.147 12.7144C13.6343 12.4409 12.9906 12.3042 12.2158 12.3042C11.4639 12.3042 10.8315 12.4181 10.3188 12.646C9.80615 12.8739 9.41878 13.1815 9.15674 13.5688C8.89469 13.9448 8.76367 14.3607 8.76367 14.8164C8.76367 15.1924 8.86621 15.5342 9.07129 15.8418C9.28776 16.138 9.58968 16.4172 9.97705 16.6792C10.3758 16.9412 10.8543 17.1919 11.4126 17.4312C11.9823 17.6704 12.6203 17.904 13.3267 18.1318C14.6483 18.5534 15.8218 19.0262 16.8472 19.5503C17.884 20.063 18.7555 20.6497 19.4619 21.3105C20.1797 21.96 20.7209 22.7005 21.0854 23.5322C21.4614 24.3639 21.6494 25.3039 21.6494 26.3521C21.6494 27.4686 21.4329 28.4598 21 29.3257C20.5671 30.1916 19.9461 30.9264 19.1372 31.5303C18.3283 32.1227 17.3599 32.5728 16.2319 32.8804C15.104 33.188 13.8451 33.3418 12.4551 33.3418C11.179 33.3418 9.92008 33.1823 8.67822 32.8633C7.44775 32.5329 6.33122 32.0316 5.32861 31.3594C4.32601 30.6758 3.52279 29.8042 2.91895 28.7446C2.3265 27.6737 2.03027 26.4033 2.03027 24.9336H8.0459C8.0459 25.6628 8.14274 26.278 8.33643 26.7793C8.53011 27.2806 8.81494 27.6851 9.19092 27.9927C9.56689 28.2889 10.0283 28.5054 10.5752 28.6421C11.1221 28.7674 11.7487 28.8301 12.4551 28.8301C13.2184 28.8301 13.8337 28.7218 14.3008 28.5054C14.7679 28.2775 15.1097 27.9813 15.3262 27.6167C15.5426 27.2407 15.6509 26.8306 15.6509 26.3862ZM30.5532 14.5088V33H24.7769V14.5088H30.5532ZM24.4351 9.74072C24.4351 8.92041 24.7313 8.24821 25.3237 7.72412C25.9162 7.20003 26.6852 6.93799 27.6309 6.93799C28.5765 6.93799 29.3455 7.20003 29.938 7.72412C30.5304 8.24821 30.8267 8.92041 30.8267 9.74072C30.8267 10.561 30.5304 11.2332 29.938 11.7573C29.3455 12.2814 28.5765 12.5435 27.6309 12.5435C26.6852 12.5435 25.9162 12.2814 25.3237 11.7573C24.7313 11.2332 24.4351 10.561 24.4351 9.74072ZM39.9185 18.4224V33H34.1592V14.5088H39.5596L39.9185 18.4224ZM39.2178 23.1221L37.9019 23.1562C37.9019 21.8574 38.0557 20.6611 38.3633 19.5674C38.6709 18.4736 39.1266 17.5223 39.7305 16.7134C40.3343 15.9045 41.0749 15.2778 41.9521 14.8335C42.8408 14.3892 43.8662 14.167 45.0283 14.167C45.8372 14.167 46.5721 14.2923 47.2329 14.543C47.8937 14.7822 48.4634 15.1639 48.9419 15.688C49.4204 16.2007 49.785 16.8729 50.0356 17.7046C50.2977 18.5249 50.4287 19.5104 50.4287 20.6611V33H44.6694V21.396C44.6694 20.6099 44.5783 20.0174 44.396 19.6187C44.2251 19.2199 43.9744 18.9521 43.644 18.8154C43.3136 18.6787 42.9092 18.6104 42.4307 18.6104C41.9294 18.6104 41.4793 18.7243 41.0806 18.9521C40.6818 19.18 40.34 19.499 40.0552 19.9092C39.7817 20.3079 39.571 20.7808 39.4229 21.3276C39.2861 21.8745 39.2178 22.4727 39.2178 23.1221ZM49.7793 23.1221L48.1729 23.1562C48.1729 21.8574 48.3153 20.6611 48.6001 19.5674C48.8963 18.4736 49.335 17.5223 49.916 16.7134C50.5085 15.9045 51.2433 15.2778 52.1206 14.8335C52.9979 14.3892 54.0176 14.167 55.1797 14.167C56.0228 14.167 56.7975 14.2923 57.5039 14.543C58.2103 14.7936 58.8198 15.1981 59.3325 15.7563C59.8452 16.3146 60.244 17.0552 60.5288 17.978C60.8136 18.8895 60.9561 20.0174 60.9561 21.3618V33H55.1797V21.3618C55.1797 20.5985 55.0885 20.0231 54.9062 19.6357C54.7354 19.237 54.4847 18.9692 54.1543 18.8325C53.8239 18.6844 53.4308 18.6104 52.9751 18.6104C52.4282 18.6104 51.9554 18.7243 51.5566 18.9521C51.1579 19.18 50.8218 19.499 50.5483 19.9092C50.2863 20.3079 50.0926 20.7808 49.9673 21.3276C49.842 21.8745 49.7793 22.4727 49.7793 23.1221ZM70.0649 18.0635V40.1094H64.3057V14.5088H69.6719L70.0649 18.0635ZM81.4126 23.5322V23.8911C81.4126 25.2355 81.2588 26.4831 80.9512 27.6338C80.6436 28.7845 80.1878 29.7871 79.584 30.6416C78.9801 31.4961 78.2282 32.1626 77.3281 32.6411C76.4395 33.1082 75.4084 33.3418 74.2349 33.3418C73.1297 33.3418 72.1784 33.0968 71.3809 32.6069C70.5833 32.117 69.9168 31.4391 69.3813 30.5732C68.8459 29.7074 68.4129 28.7161 68.0825 27.5996C67.7521 26.4831 67.4901 25.3039 67.2964 24.062V23.6006C67.4901 22.2676 67.7521 21.0314 68.0825 19.8921C68.4129 18.7414 68.8459 17.7388 69.3813 16.8843C69.9168 16.0298 70.5776 15.3633 71.3638 14.8848C72.1613 14.4062 73.1126 14.167 74.2178 14.167C75.3913 14.167 76.4224 14.3892 77.311 14.8335C78.2111 15.2778 78.9631 15.9159 79.5669 16.7476C80.1821 17.5679 80.6436 18.5534 80.9512 19.7041C81.2588 20.8548 81.4126 22.1309 81.4126 23.5322ZM75.6533 23.8911V23.5322C75.6533 22.8145 75.6021 22.1593 75.4995 21.5669C75.397 20.9631 75.2318 20.439 75.0039 19.9946C74.7874 19.5503 74.4969 19.2085 74.1323 18.9692C73.7677 18.73 73.3177 18.6104 72.7822 18.6104C72.167 18.6104 71.6486 18.7072 71.2271 18.9009C70.8169 19.0832 70.4865 19.368 70.2358 19.7554C69.9966 20.1313 69.8257 20.6042 69.7231 21.1738C69.632 21.7321 69.5921 22.3872 69.6035 23.1392V24.5405C69.5807 25.4064 69.6662 26.1698 69.8599 26.8306C70.0535 27.48 70.3896 27.987 70.8682 28.3516C71.3467 28.7161 71.9961 28.8984 72.8164 28.8984C73.3633 28.8984 73.819 28.7731 74.1836 28.5225C74.5482 28.2604 74.8387 27.9015 75.0552 27.4458C75.2716 26.9787 75.4255 26.4432 75.5166 25.8394C75.6077 25.2355 75.6533 24.5861 75.6533 23.8911ZM90.0601 6.75V33H84.2837V6.75H90.0601ZM102.57 33.3418C101.066 33.3418 99.7215 33.1082 98.5366 32.6411C97.3517 32.1626 96.3491 31.5075 95.5288 30.6758C94.7199 29.8441 94.099 28.887 93.666 27.8047C93.2445 26.7223 93.0337 25.5773 93.0337 24.3696V23.7202C93.0337 22.3644 93.2217 21.1112 93.5977 19.9604C93.9736 18.7983 94.5319 17.7843 95.2725 16.9185C96.013 16.0526 96.9416 15.3804 98.0581 14.9019C99.1746 14.4119 100.473 14.167 101.955 14.167C103.265 14.167 104.438 14.3778 105.475 14.7993C106.512 15.2209 107.389 15.8247 108.107 16.6108C108.836 17.397 109.389 18.3483 109.765 19.4648C110.152 20.5814 110.346 21.8346 110.346 23.2246V25.5659H95.2383V21.96H104.723V21.5156C104.735 20.9004 104.626 20.3763 104.398 19.9434C104.182 19.5104 103.863 19.18 103.441 18.9521C103.02 18.7243 102.507 18.6104 101.903 18.6104C101.277 18.6104 100.758 18.7471 100.348 19.0205C99.9494 19.2939 99.6361 19.6699 99.4082 20.1484C99.1917 20.6156 99.0379 21.1567 98.9468 21.772C98.8556 22.3872 98.8101 23.0366 98.8101 23.7202V24.3696C98.8101 25.0532 98.9012 25.6742 99.0835 26.2324C99.2772 26.7907 99.5506 27.2692 99.9038 27.668C100.268 28.0553 100.701 28.3573 101.203 28.5737C101.715 28.7902 102.296 28.8984 102.946 28.8984C103.732 28.8984 104.507 28.7503 105.27 28.4541C106.033 28.1579 106.688 27.668 107.235 26.9844L109.85 30.0947C109.474 30.6302 108.939 31.1486 108.244 31.6499C107.56 32.1512 106.74 32.5614 105.783 32.8804C104.826 33.188 103.755 33.3418 102.57 33.3418Z" fill="#7B61FF"/>
    </svg>
    